<?xml version="1.0" standalone="no"?>
<!DOCTYPE svg PUBLIC "-//W3C//DTD SVG 20010904//EN"
 "http://www.w3.org/TR/2001/REC-SVG-20010904/DTD/svg10.dtd">
<svg version="1.0" xmlns="http://www.w3.org/2000/svg"
 width="521.000000pt" height="521.000000pt" viewBox="0 0 521.000000 521.000000"
 preserveAspectRatio="xMidYMid meet">
<metadata>
Created by potrace 1.11, written by Peter Selinger 2001-2013
</metadata>
<g transform="translate(0.000000,521.000000) scale(0.100000,-0.100000)"
fill="#000000" stroke="none">
<path d="M786 5203 c-3 -3 -6 -1176 -6 -2605 l0 -2598 1317 0 1316 0 216 162
c119 88 275 205 346 258 72 53 201 150 288 215 l157 118 0 703 0 702 -122 68
c-68 37 -136 74 -153 82 -16 8 -93 50 -170 92 -77 43 -192 105 -255 138 -63
34 -115 66 -115 73 0 7 119 104 265 216 146 112 275 213 287 223 l23 20 0 693
0 693 -97 72 c-54 40 -136 100 -183 135 -263 194 -334 247 -525 390 l-210 158
-1130 -2 c-766 -2 -1135 -6 -1144 -14 -10 -7 -15 -6 -18 3 -3 6 -9 12 -14 12
-6 0 -7 -4 -4 -10 8 -13 -21 -13 -44 0 -10 5 -21 6 -25 3z m2004 -1011 c14
-10 96 -67 183 -126 l157 -107 0 -289 0 -289 -184 -126 -184 -125 -441 0 -441
0 0 538 c0 296 2 541 4 543 2 2 201 3 442 2 407 -2 440 -4 464 -21z m232
-2120 c2 -4 48 -37 103 -74 55 -37 133 -91 174 -120 l73 -53 -1 -289 c0 -159
-4 -292 -9 -295 -4 -3 -85 -59 -179 -123 l-171 -118 -566 0 -566 0 0 540 0
540 569 0 c313 0 571 -3 573 -8z"/>
</g>
</svg>
